<?xml version="1.0" encoding="utf-8"?>
<!-- Generator: Adobe Illustrator 26.0.1, SVG Export Plug-In . SVG Version: 6.00 Build 0)  -->
<svg version="1.1" id="Layer_1" xmlns="http://www.w3.org/2000/svg" xmlns:xlink="http://www.w3.org/1999/xlink" x="0px" y="0px"
	 viewBox="0 0 34.52 33.39" style="enable-background:new 0 0 34.52 33.39;" xml:space="preserve">
<style type="text/css">
	.st0{fill:none;stroke:#F69C6B;stroke-width:3.197;stroke-miterlimit:10;}
	.st1{fill:#379CA7;}
	.st2{fill:#B8A486;}
	.st3{fill:none;stroke:#379CA7;stroke-width:2;}
	.st4{fill:#FFFFFF;stroke:#F69C6B;stroke-width:3;}
	.st5{fill:none;stroke:#2C8C97;stroke-width:2;stroke-miterlimit:10;}
	.st6{fill:#379EA5;}
	.st7{fill:#2C8C97;}
	.st8{fill:#F69C6B;}
</style>
<g id="Group_263">
	<path id="Path_322" class="st7" d="M11.55,24.54c-1.95-1.61-4.84-1.33-6.46,0.62s-1.33,4.84,0.62,6.46s4.84,1.33,6.46-0.62
		c0.68-0.82,1.05-1.85,1.05-2.92v-13.6l13.49-6.56v9.12c-1.95-1.61-4.85-1.33-6.46,0.62c-1.61,1.95-1.33,4.85,0.62,6.46
		s4.85,1.33,6.46-0.62c0.68-0.82,1.05-1.85,1.05-2.92V0.72L11.55,8.94V24.54z M10.7,30.14c-1.14,1.14-2.99,1.14-4.13,0
		s-1.14-2.99,0-4.13c1.14-1.14,2.99-1.14,4.13,0c0.55,0.55,0.86,1.29,0.86,2.07C11.55,28.85,11.25,29.6,10.7,30.14 M25.86,22.64
		c-1.14,1.14-2.99,1.14-4.13,0c-1.14-1.14-1.14-2.99,0-4.13s2.99-1.14,4.13,0c0.55,0.55,0.85,1.29,0.85,2.06
		C26.71,21.35,26.41,22.09,25.86,22.64 M13.22,9.98l13.49-6.58v2.67l-13.49,6.56V9.98z"/>
</g>
</svg>
