<?xml version="1.0" encoding="utf-8"?>
<!-- Generator: Adobe Illustrator 26.0.1, SVG Export Plug-In . SVG Version: 6.00 Build 0)  -->
<svg version="1.1" id="Layer_1" xmlns="http://www.w3.org/2000/svg" xmlns:xlink="http://www.w3.org/1999/xlink" x="0px" y="0px"
	 viewBox="0 0 34.52 33.39" style="enable-background:new 0 0 34.52 33.39;" xml:space="preserve">
<style type="text/css">
	.st0{fill:none;stroke:#F69C6B;stroke-width:3.197;stroke-miterlimit:10;}
	.st1{fill:#379CA7;}
	.st2{fill:#B8A486;}
	.st3{fill:none;stroke:#379CA7;stroke-width:2;}
	.st4{fill:#FFFFFF;stroke:#F69C6B;stroke-width:3;}
	.st5{fill:none;stroke:#2C8C97;stroke-width:2;stroke-miterlimit:10;}
	.st6{fill:#379EA5;}
	.st7{fill:#2C8C97;}
	.st8{fill:#F69C6B;}
</style>
<g id="Group_275" transform="translate(0 0)">
	<path id="Path_329" class="st5" d="M26.3,10.83c0,7.66-9.04,20.03-9.04,20.03S8.23,18.48,8.23,10.83c0-4.99,4.04-9.04,9.04-9.04
		S26.3,5.83,26.3,10.83C26.3,10.83,26.3,10.83,26.3,10.83z"/>
	<path id="Path_330" class="st5" d="M21.59,10.83c0,2.39-1.94,4.33-4.32,4.33s-4.33-1.94-4.33-4.32s1.94-4.33,4.32-4.33c0,0,0,0,0,0
		C19.65,6.5,21.59,8.44,21.59,10.83z"/>
</g>
</svg>
